<mxfile host="app.diagrams.net" modified="2024-03-23T18:41:42.439Z" agent="Mozilla/5.0 (Windows NT 10.0; Win64; x64) AppleWebKit/537.36 (KHTML, like Gecko) Chrome/123.0.0.0 Safari/537.36" etag="ewW-4MuYxxnOWS7fOW3S" version="24.1.0" type="device">
  <diagram id="veOgcDAYwcQMUDRxtFas" name="Page-1">
    <mxGraphModel dx="1857" dy="456" grid="1" gridSize="10" guides="1" tooltips="1" connect="1" arrows="1" fold="1" page="1" pageScale="1" pageWidth="827" pageHeight="1169" math="0" shadow="0">
      <root>
        <mxCell id="0" />
        <mxCell id="1" parent="0" />
        <mxCell id="CiQgohF3w-3SZwqTiutz-49" style="edgeStyle=elbowEdgeStyle;rounded=0;orthogonalLoop=1;jettySize=auto;html=1;elbow=vertical;curved=0;endArrow=none;endFill=0;fontSize=8;startArrow=open;startFill=0;dashed=1;" parent="1" edge="1">
          <mxGeometry relative="1" as="geometry">
            <mxPoint x="119.99666666666668" y="320" as="sourcePoint" />
            <mxPoint x="239.33000000000007" y="320" as="targetPoint" />
          </mxGeometry>
        </mxCell>
        <mxCell id="CiQgohF3w-3SZwqTiutz-50" value="return 400 HTTP status code" style="edgeLabel;html=1;align=center;verticalAlign=middle;resizable=0;points=[];fontSize=7;labelBackgroundColor=none;" parent="CiQgohF3w-3SZwqTiutz-49" vertex="1" connectable="0">
          <mxGeometry x="0.0456" y="-2" relative="1" as="geometry">
            <mxPoint x="-2" y="-7" as="offset" />
          </mxGeometry>
        </mxCell>
        <mxCell id="CiQgohF3w-3SZwqTiutz-7" value="PSC" style="shape=umlLifeline;perimeter=lifelinePerimeter;whiteSpace=wrap;html=1;container=0;dropTarget=0;collapsible=0;recursiveResize=0;outlineConnect=0;portConstraint=eastwest;newEdgeStyle={&quot;edgeStyle&quot;:&quot;elbowEdgeStyle&quot;,&quot;elbow&quot;:&quot;vertical&quot;,&quot;curved&quot;:0,&quot;rounded&quot;:0};" parent="1" vertex="1">
          <mxGeometry x="200" y="40" width="80" height="380" as="geometry" />
        </mxCell>
        <mxCell id="CiQgohF3w-3SZwqTiutz-8" value="Check role is MANAGER" style="html=1;align=left;spacingLeft=2;endArrow=open;rounded=0;edgeStyle=orthogonalEdgeStyle;curved=0;rounded=0;fontSize=8;endFill=0;" parent="CiQgohF3w-3SZwqTiutz-7" source="CiQgohF3w-3SZwqTiutz-9" target="CiQgohF3w-3SZwqTiutz-10" edge="1">
          <mxGeometry x="0.0769" relative="1" as="geometry">
            <mxPoint x="40" y="160" as="sourcePoint" />
            <Array as="points">
              <mxPoint x="70" y="90" />
              <mxPoint x="70" y="110" />
            </Array>
            <mxPoint as="offset" />
          </mxGeometry>
        </mxCell>
        <mxCell id="CiQgohF3w-3SZwqTiutz-9" value="" style="html=1;points=[[0,0,0,0,5],[0,1,0,0,-5],[1,0,0,0,5],[1,1,0,0,-5]];perimeter=orthogonalPerimeter;outlineConnect=0;targetShapes=umlLifeline;portConstraint=eastwest;newEdgeStyle={&quot;curved&quot;:0,&quot;rounded&quot;:0};fontSize=8;" parent="CiQgohF3w-3SZwqTiutz-7" vertex="1">
          <mxGeometry x="35" y="70" width="10" height="270" as="geometry" />
        </mxCell>
        <mxCell id="CiQgohF3w-3SZwqTiutz-10" value="" style="html=1;points=[[0,0,0,0,5],[0,1,0,0,-5],[1,0,0,0,5],[1,1,0,0,-5]];perimeter=orthogonalPerimeter;outlineConnect=0;targetShapes=umlLifeline;portConstraint=eastwest;newEdgeStyle={&quot;curved&quot;:0,&quot;rounded&quot;:0};fontSize=8;" parent="CiQgohF3w-3SZwqTiutz-7" vertex="1">
          <mxGeometry x="40" y="100" width="10" height="30" as="geometry" />
        </mxCell>
        <mxCell id="CiQgohF3w-3SZwqTiutz-15" value="User" style="shape=umlLifeline;perimeter=lifelinePerimeter;whiteSpace=wrap;html=1;container=0;dropTarget=0;collapsible=0;recursiveResize=0;outlineConnect=0;portConstraint=eastwest;newEdgeStyle={&quot;edgeStyle&quot;:&quot;elbowEdgeStyle&quot;,&quot;elbow&quot;:&quot;vertical&quot;,&quot;curved&quot;:0,&quot;rounded&quot;:0};" parent="1" vertex="1">
          <mxGeometry x="110" y="40" width="20" height="380" as="geometry" />
        </mxCell>
        <mxCell id="CiQgohF3w-3SZwqTiutz-17" value="User" style="whiteSpace=wrap;html=1;" parent="1" vertex="1">
          <mxGeometry x="100" y="40" width="40" height="40" as="geometry" />
        </mxCell>
        <mxCell id="CiQgohF3w-3SZwqTiutz-18" style="edgeStyle=elbowEdgeStyle;rounded=0;orthogonalLoop=1;jettySize=auto;html=1;elbow=vertical;curved=0;endArrow=open;endFill=0;fontSize=8;" parent="1" edge="1">
          <mxGeometry relative="1" as="geometry">
            <mxPoint x="120.66666666666669" y="109.99999999999999" as="sourcePoint" />
            <mxPoint x="240" y="109.99999999999999" as="targetPoint" />
          </mxGeometry>
        </mxCell>
        <mxCell id="CiQgohF3w-3SZwqTiutz-19" value="PATCH PSC" style="edgeLabel;html=1;align=center;verticalAlign=middle;resizable=0;points=[];fontSize=8;" parent="CiQgohF3w-3SZwqTiutz-18" vertex="1" connectable="0">
          <mxGeometry x="0.0456" y="-2" relative="1" as="geometry">
            <mxPoint y="-12" as="offset" />
          </mxGeometry>
        </mxCell>
        <mxCell id="CiQgohF3w-3SZwqTiutz-34" value="alt" style="shape=umlFrame;whiteSpace=wrap;html=1;pointerEvents=0;width=30;height=15;fontSize=10;" parent="1" vertex="1">
          <mxGeometry y="170" width="360" height="230" as="geometry" />
        </mxCell>
        <mxCell id="CiQgohF3w-3SZwqTiutz-35" value="&lt;font style=&quot;font-size: 7px;&quot;&gt;[if user is authorized]&lt;/font&gt;" style="text;html=1;align=left;verticalAlign=middle;resizable=0;points=[];autosize=1;strokeColor=none;fillColor=none;fontSize=7;" parent="1" vertex="1">
          <mxGeometry y="185" width="90" height="20" as="geometry" />
        </mxCell>
        <mxCell id="CiQgohF3w-3SZwqTiutz-40" value="alt" style="shape=umlFrame;whiteSpace=wrap;html=1;pointerEvents=0;width=30;height=15;fontSize=10;" parent="1" vertex="1">
          <mxGeometry x="10" y="220" width="340" height="120" as="geometry" />
        </mxCell>
        <mxCell id="CiQgohF3w-3SZwqTiutz-43" value="Validate new PSC data" style="html=1;align=left;spacingLeft=2;endArrow=open;rounded=0;edgeStyle=orthogonalEdgeStyle;curved=0;rounded=0;fontSize=8;endFill=0;" parent="1" target="CiQgohF3w-3SZwqTiutz-44" edge="1">
          <mxGeometry x="0.0769" relative="1" as="geometry">
            <mxPoint x="245" y="180" as="sourcePoint" />
            <Array as="points">
              <mxPoint x="270" y="180" />
              <mxPoint x="270" y="200" />
            </Array>
            <mxPoint as="offset" />
          </mxGeometry>
        </mxCell>
        <mxCell id="CiQgohF3w-3SZwqTiutz-44" value="" style="html=1;points=[[0,0,0,0,5],[0,1,0,0,-5],[1,0,0,0,5],[1,1,0,0,-5]];perimeter=orthogonalPerimeter;outlineConnect=0;targetShapes=umlLifeline;portConstraint=eastwest;newEdgeStyle={&quot;curved&quot;:0,&quot;rounded&quot;:0};fontSize=8;" parent="1" vertex="1">
          <mxGeometry x="240" y="190" width="10" height="30" as="geometry" />
        </mxCell>
        <mxCell id="CiQgohF3w-3SZwqTiutz-45" value="&lt;font style=&quot;font-size: 7px;&quot;&gt;[if data validation is ok]&lt;/font&gt;" style="text;html=1;align=left;verticalAlign=top;resizable=0;points=[];autosize=1;strokeColor=none;fillColor=none;fontSize=7;" parent="1" vertex="1">
          <mxGeometry x="10" y="240" width="90" height="20" as="geometry" />
        </mxCell>
        <mxCell id="CiQgohF3w-3SZwqTiutz-46" style="edgeStyle=elbowEdgeStyle;rounded=0;orthogonalLoop=1;jettySize=auto;html=1;elbow=vertical;curved=0;endArrow=none;endFill=0;fontSize=8;startArrow=none;startFill=0;dashed=1;dashPattern=8 8;" parent="1" edge="1">
          <mxGeometry relative="1" as="geometry">
            <mxPoint x="9.46" y="290" as="sourcePoint" />
            <mxPoint x="349.46" y="290" as="targetPoint" />
          </mxGeometry>
        </mxCell>
        <mxCell id="CiQgohF3w-3SZwqTiutz-48" value="&lt;font style=&quot;font-size: 7px;&quot;&gt;[else]&lt;/font&gt;" style="text;html=1;align=left;verticalAlign=middle;resizable=0;points=[];autosize=1;strokeColor=none;fillColor=none;fontSize=7;" parent="1" vertex="1">
          <mxGeometry x="9.46" y="290.2" width="40" height="20" as="geometry" />
        </mxCell>
        <mxCell id="CiQgohF3w-3SZwqTiutz-51" style="rounded=0;orthogonalLoop=1;jettySize=auto;html=1;elbow=vertical;endArrow=none;endFill=0;fontSize=8;startArrow=none;startFill=0;dashed=1;entryX=1.003;entryY=0.825;entryDx=0;entryDy=0;entryPerimeter=0;dashPattern=8 8;" parent="1" edge="1">
          <mxGeometry relative="1" as="geometry">
            <mxPoint x="-1.08" y="350.2" as="sourcePoint" />
            <mxPoint x="359.9999999999999" y="350.45" as="targetPoint" />
          </mxGeometry>
        </mxCell>
        <mxCell id="CiQgohF3w-3SZwqTiutz-52" value="&lt;font style=&quot;font-size: 7px;&quot;&gt;[else]&lt;/font&gt;" style="text;html=1;align=left;verticalAlign=middle;resizable=0;points=[];autosize=1;strokeColor=none;fillColor=none;fontSize=7;" parent="1" vertex="1">
          <mxGeometry y="350" width="40" height="20" as="geometry" />
        </mxCell>
        <mxCell id="CiQgohF3w-3SZwqTiutz-53" style="edgeStyle=elbowEdgeStyle;rounded=0;orthogonalLoop=1;jettySize=auto;html=1;elbow=vertical;curved=0;endArrow=none;endFill=0;fontSize=8;startArrow=open;startFill=0;dashed=1;" parent="1" edge="1">
          <mxGeometry relative="1" as="geometry">
            <mxPoint x="120.66666666666667" y="380" as="sourcePoint" />
            <mxPoint x="240.00000000000006" y="380" as="targetPoint" />
          </mxGeometry>
        </mxCell>
        <mxCell id="CiQgohF3w-3SZwqTiutz-54" value="return 401 HTTP status code" style="edgeLabel;html=1;align=center;verticalAlign=middle;resizable=0;points=[];fontSize=7;labelBackgroundColor=none;" parent="CiQgohF3w-3SZwqTiutz-53" vertex="1" connectable="0">
          <mxGeometry x="0.0456" y="-2" relative="1" as="geometry">
            <mxPoint x="-2" y="-7" as="offset" />
          </mxGeometry>
        </mxCell>
        <mxCell id="CiQgohF3w-3SZwqTiutz-55" value="Update PSC" style="html=1;align=left;spacingLeft=2;endArrow=open;rounded=0;edgeStyle=orthogonalEdgeStyle;curved=0;rounded=0;fontSize=8;endFill=0;" parent="1" target="CiQgohF3w-3SZwqTiutz-56" edge="1">
          <mxGeometry x="0.0769" relative="1" as="geometry">
            <mxPoint x="245" y="230" as="sourcePoint" />
            <Array as="points">
              <mxPoint x="270" y="230" />
              <mxPoint x="270" y="250" />
            </Array>
            <mxPoint as="offset" />
          </mxGeometry>
        </mxCell>
        <mxCell id="CiQgohF3w-3SZwqTiutz-56" value="" style="html=1;points=[[0,0,0,0,5],[0,1,0,0,-5],[1,0,0,0,5],[1,1,0,0,-5]];perimeter=orthogonalPerimeter;outlineConnect=0;targetShapes=umlLifeline;portConstraint=eastwest;newEdgeStyle={&quot;curved&quot;:0,&quot;rounded&quot;:0};fontSize=8;" parent="1" vertex="1">
          <mxGeometry x="240" y="240" width="10" height="30" as="geometry" />
        </mxCell>
        <mxCell id="CiQgohF3w-3SZwqTiutz-37" style="edgeStyle=elbowEdgeStyle;rounded=0;orthogonalLoop=1;jettySize=auto;html=1;elbow=vertical;curved=0;endArrow=none;endFill=0;fontSize=8;startArrow=open;startFill=0;dashed=1;" parent="1" edge="1">
          <mxGeometry relative="1" as="geometry">
            <mxPoint x="119.99666666666668" y="270" as="sourcePoint" />
            <mxPoint x="239.33000000000007" y="270" as="targetPoint" />
          </mxGeometry>
        </mxCell>
        <mxCell id="CiQgohF3w-3SZwqTiutz-38" value="return 200 HTTP status code" style="edgeLabel;html=1;align=center;verticalAlign=middle;resizable=0;points=[];fontSize=7;labelBackgroundColor=none;" parent="CiQgohF3w-3SZwqTiutz-37" vertex="1" connectable="0">
          <mxGeometry x="0.0456" y="-2" relative="1" as="geometry">
            <mxPoint x="-2" y="-7" as="offset" />
          </mxGeometry>
        </mxCell>
      </root>
    </mxGraphModel>
  </diagram>
</mxfile>
